<svg width="77" height="77" viewBox="0 0 77 77" fill="none" xmlns="http://www.w3.org/2000/svg">
<path d="M77 38.5C77 17.237 59.763 0 38.5 0C17.237 0 0 17.237 0 38.5C0 59.763 17.237 77 38.5 77C59.763 77 77 59.763 77 38.5Z" fill="#B3977E"/>
<path d="M54.655 59.9021H47.3592C46.3518 59.9021 45.5352 59.2552 45.5352 58.4572V23.7803C45.5352 22.9823 46.3518 22.3354 47.3592 22.3354H54.655C55.6623 22.3354 56.4789 22.9823 56.4789 23.7803V58.4572C56.4789 59.2552 55.6623 59.9021 54.655 59.9021Z" fill="#B9785F"/>
<path d="M47.3592 22.3354C46.3519 22.3354 45.5352 22.9823 45.5352 23.7803V58.4572C45.5352 59.2551 46.3519 59.9021 47.3592 59.9021V22.3354Z" fill="#AA6955"/>
<path d="M51.4397 46.5917L53.6469 41.3463C53.7093 41.198 53.7093 41.0378 53.6469 40.8894L51.4397 35.644C51.301 35.3146 50.7131 35.3146 50.5746 35.644L48.3674 40.8894C48.305 41.0377 48.305 41.1981 48.3674 41.3463L50.5746 46.5917C50.713 46.9211 51.301 46.9211 51.4397 46.5917Z" fill="#FFD782"/>
<path d="M30.9436 59.902H21.8239C20.8166 59.902 20 59.2552 20 58.4572V26.67C20 25.8719 20.8166 25.2251 21.8239 25.2251H30.9436C31.951 25.2251 32.7676 25.8719 32.7676 26.67V58.4572C32.7676 59.2552 31.951 59.902 30.9436 59.902Z" fill="#9B8273"/>
<path d="M20 26.67V58.4572C20 59.2551 20.8167 59.902 21.8239 59.902V25.2251C20.8167 25.2251 20 25.8719 20 26.67Z" fill="#876E64"/>
<path d="M26.8165 48.0366L29.0237 42.7911C29.0861 42.6428 29.0861 42.4824 29.0237 42.3342L26.8165 37.0888C26.6778 36.7595 26.0899 36.7595 25.9514 37.0888L23.7442 42.3342C23.6818 42.4825 23.6818 42.6429 23.7442 42.7911L25.9514 48.0366C26.0899 48.3659 26.6778 48.3659 26.8165 48.0366Z" fill="#FFD782"/>
<path d="M43.7113 59.9013H34.5916C33.5842 59.9013 32.7677 59.2544 32.7677 58.4564V19.4449C32.7676 18.6469 33.5841 18 34.5916 18H43.7113C44.7187 18 45.5352 18.6469 45.5352 19.4449V58.4564C45.5352 59.2544 44.7187 59.9013 43.7113 59.9013Z" fill="#707487"/>
<path d="M34.5916 59.9013V18C33.5842 18 32.7677 18.6469 32.7677 19.4449V58.4564C32.7676 59.2544 33.5841 59.9013 34.5916 59.9013Z" fill="#5B5D6E"/>
<path d="M39.584 44.4252L41.7912 39.1798C41.8536 39.0315 41.8536 38.8713 41.7912 38.7229L39.584 33.4775C39.4453 33.1481 38.8574 33.1481 38.7189 33.4775L36.5117 38.7229C36.4493 38.8712 36.4493 39.0314 36.5117 39.1798L38.7189 44.4252C38.8574 44.7545 39.4453 44.7545 39.584 44.4252Z" fill="#FFD782"/>
<path d="M45.5351 20.8892H32.7676V22.334H45.5351V20.8892Z" fill="#FFD782"/>
<path d="M45.5351 23.7793H32.7676V25.2242H45.5351V23.7793Z" fill="#FFD782"/>
<path d="M45.5351 52.6768H32.7676V54.1216H45.5351V52.6768Z" fill="#FFD782"/>
<path d="M45.5351 55.5664H32.7676V57.0113H45.5351V55.5664Z" fill="#FFD782"/>
<path d="M32.7676 54.1216H20V55.5664H32.7676V54.1216Z" fill="#FFD782"/>
<path d="M56.4789 54.1216H45.5352V55.5664H56.4789V54.1216Z" fill="#FFD782"/>
<path d="M56.4789 26.6699H45.5352V28.1148H56.4789V26.6699Z" fill="#FFD782"/>
<path d="M32.7676 29.5586H20V31.0035H32.7676V29.5586Z" fill="#FFD782"/>
<path d="M34.5915 20.8892H32.7676V22.334H34.5915V20.8892Z" fill="#FFC36E"/>
<path d="M34.5915 23.7793H32.7676V25.2242H34.5915V23.7793Z" fill="#FFC36E"/>
<path d="M21.8239 29.5586H20V31.0035H21.8239V29.5586Z" fill="#FFC36E"/>
<path d="M21.8239 54.1216H20V55.5664H21.8239V54.1216Z" fill="#FFC36E"/>
<path d="M47.3592 26.6699H45.5352V28.1148H47.3592V26.6699Z" fill="#FFC36E"/>
<path d="M47.3592 54.1216H45.5352V55.5664H47.3592V54.1216Z" fill="#FFC36E"/>
<path d="M34.5915 52.6768H32.7676V54.1216H34.5915V52.6768Z" fill="#FFC36E"/>
<path d="M34.5915 55.5664H32.7676V57.0113H34.5915V55.5664Z" fill="#FFC36E"/>
</svg>
